<svg xmlns="http://www.w3.org/2000/svg" viewBox="0 0 200 200" width="200" height="200" aria-hidden="true">
  <rect width="200" height="200" fill="#f0f2f6"/>
  <g fill="none" stroke-linecap="round" stroke-linejoin="round" stroke-width="1.8" opacity="0.9">
    <!-- м’яч -->
    <circle cx="48" cy="44" r="8.5" fill="rgba(51,154,59,0.1)" stroke="#339a39"/>
    <path d="M41.5 44h13" stroke="#339a39" stroke-width="1" opacity="0.45"/>
    <!-- миска + корм -->
    <path d="M30 86c0-5 3-6 6-6h16c3 0 6 1 6 6v4H30V86z" fill="rgba(54,125,241,0.1)" stroke="#367df1"/>
    <circle cx="41" cy="83" r="1.2" fill="#367df1" stroke="none" opacity="0.35"/>
    <circle cx="47" cy="85" r="1.2" fill="#367df1" stroke="none" opacity="0.35"/>
    <circle cx="53" cy="83" r="1.2" fill="#367df1" stroke="none" opacity="0.35"/>
    <!-- собака: голова + тулуб -->
    <circle cx="136" cy="48" r="7" fill="rgba(54,125,241,0.1)" stroke="#367df1"/>
    <ellipse cx="118" cy="58" rx="14" ry="9" fill="rgba(54,125,241,0.1)" stroke="#367df1"/>
    <path d="M128 50q-8-4-12-2" stroke="#367df1" stroke-width="1.3" opacity="0.7"/>
    <!-- кіт: вушка + коло -->
    <polygon points="44,120 40,110 45,115" fill="none" stroke="#ef3829" stroke-width="1.4"/>
    <polygon points="55,120 60,110 55,115" fill="none" stroke="#ef3829" stroke-width="1.4"/>
    <circle cx="50" cy="128" r="8" fill="rgba(239,56,41,0.1)" stroke="#ef3829"/>
    <!-- кістка -->
    <g transform="translate(92 98)">
      <circle cx="0" cy="0" r="4.2" fill="rgba(102,112,133,0.1)" stroke="#667085" stroke-width="1.2"/>
      <rect x="0" y="-2.5" width="20" height="5" rx="1.3" fill="rgba(102,112,133,0.1)" stroke="#667085" stroke-width="1.2"/>
      <circle cx="20" cy="0" r="4.2" fill="rgba(102,112,133,0.1)" stroke="#667085" stroke-width="1.2"/>
    </g>
    <!-- ошийник -->
    <ellipse cx="100" cy="100" rx="10" ry="4" fill="none" stroke="#feb400" stroke-width="1.5"/>
    <circle cx="100" cy="100.5" r="1.5" fill="rgba(254,180,0,0.2)" stroke="#feb400" stroke-width="0.6"/>
    <!-- мішок корму -->
    <rect x="144" y="78" width="16" height="20" rx="2" fill="rgba(51,154,59,0.1)" stroke="#339a39" stroke-width="1.3"/>
    <path d="M147 78l4-2.5 4 2.5" stroke="#339a39" stroke-width="1.2"/>
    <!-- лапа -->
    <ellipse cx="72" cy="150" rx="4" ry="3.2" fill="rgba(54,125,241,0.1)" stroke="#367df1" stroke-width="1.2"/>
    <circle cx="68" cy="144" r="1.2" fill="rgba(54,125,241,0.2)" stroke="#367df1" stroke-width="0.6"/>
    <circle cx="72" cy="142" r="1.2" fill="rgba(54,125,241,0.2)" stroke="#367df1" stroke-width="0.6"/>
    <circle cx="76" cy="144" r="1.2" fill="rgba(54,125,241,0.2)" stroke="#367df1" stroke-width="0.6"/>
    <circle cx="80" cy="147" r="1" fill="rgba(54,125,241,0.2)" stroke="#367df1" stroke-width="0.6"/>
  </g>
</svg>
